<?xml version="1.0" encoding="UTF-8" standalone="no"?>
<svg
   xmlns:dc="http://purl.org/dc/elements/1.1/"
   xmlns:cc="http://creativecommons.org/ns#"
   xmlns:rdf="http://www.w3.org/1999/02/22-rdf-syntax-ns#"
   xmlns:svg="http://www.w3.org/2000/svg"
   xmlns="http://www.w3.org/2000/svg"
   xmlns:sodipodi="http://sodipodi.sourceforge.net/DTD/sodipodi-0.dtd"
   xmlns:inkscape="http://www.inkscape.org/namespaces/inkscape"
   width="128"
   height="128"
   viewBox="0 0 128 128"
   id="svg2"
   version="1.1"
   inkscape:version="0.48.2 r9819"
   sodipodi:docname="magnet_link_icon.svg">
  <metadata
     id="metadata24">
    <rdf:RDF>
      <cc:Work
         rdf:about="">
        <dc:format>image/svg+xml</dc:format>
        <dc:type
           rdf:resource="http://purl.org/dc/dcmitype/StillImage" />
      </cc:Work>
    </rdf:RDF>
  </metadata>
  <defs
     id="defs22" />
  <sodipodi:namedview
     pagecolor="#ffffff"
     bordercolor="#666666"
     borderopacity="1"
     objecttolerance="10"
     gridtolerance="10"
     guidetolerance="10"
     inkscape:pageopacity="0"
     inkscape:pageshadow="2"
     inkscape:window-width="640"
     inkscape:window-height="480"
     id="namedview20"
     showgrid="false"
     inkscape:zoom="1.84375"
     inkscape:cx="64"
     inkscape:cy="64"
     inkscape:window-x="0"
     inkscape:window-y="0"
     inkscape:window-maximized="0"
     inkscape:current-layer="svg2" />
  <g
     style="fill:#268bd2"
     id="g4">
    <path
       d="M 25.46875 94.179688 L 36.300781 105.011719 C 41.957031 110.667969 53.273438 110.667969 58.929688 105.011719 L 104.183594 59.757812 C 110.03125 53.910156 109.839844 42.785156 103.898438 36.84375 L 93.15625 26.105469 C 87.214844 20.160156 75.898438 20.160156 70.242188 25.816406 L 24.988281 71.070312 C 19.332031 76.726562 19.332031 88.042969 25.46875 94.179688 Z M 36.300781 82.386719 L 81.558594 37.128906 C 87.214844 31.472656 87.214844 31.472656 92.871094 37.128906 C 98.527344 42.785156 98.527344 42.785156 92.871094 48.445312 L 47.617188 93.699219 C 41.957031 99.355469 41.957031 99.355469 36.300781 93.699219 C 30.644531 88.042969 30.644531 88.042969 36.300781 82.386719 Z "
       id="path6" />
    <path
       d="M 77.3125 41.371094 L 111.253906 7.429688 C 116.914062 1.773438 128.226562 13.089844 122.570312 18.746094 L 88.628906 52.6875 C 82.972656 58.34375 71.65625 47.03125 77.3125 41.371094 Z "
       id="path8" />
    <path
       d="M 9.429688 109.253906 L 43.371094 75.3125 C 49.03125 69.65625 60.34375 80.96875 54.6875 86.628906 L 20.746094 120.570312 C 15.089844 126.226562 3.773438 114.910156 9.429688 109.253906 Z "
       id="path10" />
  </g>
  <g
     style="fill-opacity:.102;fill:#000"
     id="g12">
    <path
       d="M 77.3125 41.371094 L 111.253906 7.429688 C 116.914062 1.773438 128.226562 13.089844 122.570312 18.746094 L 88.628906 52.6875 C 82.972656 58.34375 71.65625 47.03125 77.3125 41.371094 Z "
       id="path14" />
    <path
       d="M 9.429688 109.253906 L 43.371094 75.3125 C 49.03125 69.65625 60.34375 80.96875 54.6875 86.628906 L 20.746094 120.570312 C 15.089844 126.226562 3.773438 114.910156 9.429688 109.253906 Z "
       id="path16" />
  </g>
</svg>
