<?xml version="1.0" encoding="UTF-8" standalone="no"?>
<svg
   xmlns:dc="http://purl.org/dc/elements/1.1/"
   xmlns:cc="http://creativecommons.org/ns#"
   xmlns:rdf="http://www.w3.org/1999/02/22-rdf-syntax-ns#"
   xmlns:svg="http://www.w3.org/2000/svg"
   xmlns="http://www.w3.org/2000/svg"
   xmlns:sodipodi="http://sodipodi.sourceforge.net/DTD/sodipodi-0.dtd"
   xmlns:inkscape="http://www.inkscape.org/namespaces/inkscape"
   width="128"
   height="128"
   viewBox="0 0 128 128"
   id="svg2"
   version="1.1"
   inkscape:version="0.48.2 r9819"
   sodipodi:docname="remove.svg">
  <metadata
     id="metadata20">
    <rdf:RDF>
      <cc:Work
         rdf:about="">
        <dc:format>image/svg+xml</dc:format>
        <dc:type
           rdf:resource="http://purl.org/dc/dcmitype/StillImage" />
      </cc:Work>
    </rdf:RDF>
  </metadata>
  <defs
     id="defs18" />
  <sodipodi:namedview
     pagecolor="#ffffff"
     bordercolor="#666666"
     borderopacity="1"
     objecttolerance="10"
     gridtolerance="10"
     guidetolerance="10"
     inkscape:pageopacity="0"
     inkscape:pageshadow="2"
     inkscape:window-width="694"
     inkscape:window-height="480"
     id="namedview16"
     showgrid="false"
     inkscape:zoom="1.84375"
     inkscape:cx="64"
     inkscape:cy="64"
     inkscape:window-x="724"
     inkscape:window-y="178"
     inkscape:window-maximized="0"
     inkscape:current-layer="svg2" />
  <path
     style="fill:#268bd2;fill-opacity:1"
     d="M 112 40 L 112 115.429688 C 112 128 112 128 98.285156 128 L 29.714844 128 C 16 128 16 128 16 115.429688 L 16 40 C 43.429688 40 91.429688 40 112 40 Z "
     id="path4" />
  <g
     style="fill-opacity:.667;fill:#fff"
     id="g6">
    <path
       d="M 24 56 L 24 112 L 40 112 L 40 56 Z "
       id="path8" />
    <path
       d="M 56 56 L 56 112 L 72 112 L 72 56 Z "
       id="path10" />
    <path
       d="M 88 56 L 88 112 L 104 112 L 104 56 Z "
       id="path12" />
  </g>
  <path
     style="fill:#268bd2;fill-opacity:1"
     d="M 16 32 L 112 32 L 112 16 L 88 16 L 88 0 L 40 0 L 40 16 L 16 16 Z "
     id="path14" />
</svg>
