<?xml version="1.0" encoding="UTF-8" standalone="no"?>
<svg
   xmlns:dc="http://purl.org/dc/elements/1.1/"
   xmlns:cc="http://creativecommons.org/ns#"
   xmlns:rdf="http://www.w3.org/1999/02/22-rdf-syntax-ns#"
   xmlns:svg="http://www.w3.org/2000/svg"
   xmlns="http://www.w3.org/2000/svg"
   xmlns:sodipodi="http://sodipodi.sourceforge.net/DTD/sodipodi-0.dtd"
   xmlns:inkscape="http://www.inkscape.org/namespaces/inkscape"
   width="128"
   height="128"
   viewBox="0 0 128 128"
   id="svg2"
   version="1.1"
   inkscape:version="0.48.2 r9819"
   sodipodi:docname="search.svg">
  <metadata
     id="metadata16">
    <rdf:RDF>
      <cc:Work
         rdf:about="">
        <dc:format>image/svg+xml</dc:format>
        <dc:type
           rdf:resource="http://purl.org/dc/dcmitype/StillImage" />
      </cc:Work>
    </rdf:RDF>
  </metadata>
  <defs
     id="defs14" />
  <sodipodi:namedview
     pagecolor="#ffffff"
     bordercolor="#666666"
     borderopacity="1"
     objecttolerance="10"
     gridtolerance="10"
     guidetolerance="10"
     inkscape:pageopacity="0"
     inkscape:pageshadow="2"
     inkscape:window-width="694"
     inkscape:window-height="480"
     id="namedview12"
     showgrid="false"
     inkscape:zoom="1.84375"
     inkscape:cx="64"
     inkscape:cy="64"
     inkscape:window-x="756"
     inkscape:window-y="196"
     inkscape:window-maximized="0"
     inkscape:current-layer="g4" />
  <g
     style="fill-rule:evenodd"
     id="g4">
    <path
       style="fill:#268bd2;fill-opacity:1"
       d="M 53.015625 0 C 23.722656 0 0 23.703125 0 53.015625 C 0 82.308594 23.722656 106.03125 53.015625 106.03125 C 61.101562 106.03125 68.695312 104.242188 75.589844 101.0625 L 95.46875 120.941406 C 104.8125 130.351562 104.90625 130.351562 114.316406 120.941406 C 123.660156 111.597656 123.660156 111.507812 114.316406 102.097656 L 96.089844 83.871094 C 102.320312 75.125 106.03125 64.546875 106.03125 53.015625 C 106.03125 23.703125 82.308594 0 53.015625 0 Z M 52.1875 26.507812 C 59.359375 26.285156 66.320312 28.976562 71.472656 33.972656 C 76.625 38.96875 79.527344 45.839844 79.523438 53.015625 C 79.523438 67.652344 67.65625 79.515625 53.015625 79.515625 C 38.375 79.515625 26.507812 67.652344 26.507812 53.015625 C 26.496094 38.695312 37.871094 26.957031 52.1875 26.507812 Z "
       id="path6" />
    <path
       style="fill:#fff"
       d="M 26.507812 53.003906 C 26.507812 67.640625 38.375 79.507812 53.015625 79.507812 C 67.65625 79.507812 79.523438 67.640625 79.523438 53.003906 C 79.523438 38.371094 67.65625 26.503906 53.015625 26.503906 C 38.375 26.503906 26.507812 38.371094 26.507812 53.003906 Z "
       id="path8" />
    <path
       style="fill:#2aa198;fill-opacity:.102"
       d="M 26.507812 53.003906 C 26.507812 67.640625 38.375 79.507812 53.015625 79.507812 C 67.65625 79.507812 79.523438 67.640625 79.523438 53.003906 C 79.523438 38.371094 67.65625 26.503906 53.015625 26.503906 C 38.375 26.503906 26.507812 38.371094 26.507812 53.003906 Z "
       id="path10" />
  </g>
</svg>
