<?xml version="1.0" encoding="UTF-8" standalone="no"?>
<svg
   xmlns:dc="http://purl.org/dc/elements/1.1/"
   xmlns:cc="http://creativecommons.org/ns#"
   xmlns:rdf="http://www.w3.org/1999/02/22-rdf-syntax-ns#"
   xmlns:svg="http://www.w3.org/2000/svg"
   xmlns="http://www.w3.org/2000/svg"
   xmlns:sodipodi="http://sodipodi.sourceforge.net/DTD/sodipodi-0.dtd"
   xmlns:inkscape="http://www.inkscape.org/namespaces/inkscape"
   width="128"
   height="128"
   viewBox="0 0 128 128"
   id="svg2"
   version="1.1"
   inkscape:version="0.48.2 r9819"
   sodipodi:docname="info.svg">
  <metadata
     id="metadata10">
    <rdf:RDF>
      <cc:Work
         rdf:about="">
        <dc:format>image/svg+xml</dc:format>
        <dc:type
           rdf:resource="http://purl.org/dc/dcmitype/StillImage" />
      </cc:Work>
    </rdf:RDF>
  </metadata>
  <defs
     id="defs8" />
  <sodipodi:namedview
     pagecolor="#ffffff"
     bordercolor="#666666"
     borderopacity="1"
     objecttolerance="10"
     gridtolerance="10"
     guidetolerance="10"
     inkscape:pageopacity="0"
     inkscape:pageshadow="2"
     inkscape:window-width="1680"
     inkscape:window-height="987"
     id="namedview6"
     showgrid="false"
     inkscape:zoom="1.84375"
     inkscape:cx="64"
     inkscape:cy="64"
     inkscape:window-x="-4"
     inkscape:window-y="-4"
     inkscape:window-maximized="0"
     inkscape:current-layer="svg2" />
  <path
     style="fill:#268bd2;fill-opacity:1"
     d="M 64.000005,0 C 28.727637,0 0,28.727639 0,63.999999 0,99.272361 28.727637,128 64.000005,128 99.272379,128 128,99.272361 128,63.999999 128,28.727639 99.272379,0 64.000005,0 z m 0,23.999267 c 4.417829,0 7.997803,3.585829 7.997803,8.003663 0,4.417834 -3.579974,7.997802 -7.997803,7.997802 -4.417832,0 -7.997805,-3.579968 -7.997805,-7.997802 0,-4.417834 3.579973,-8.003663 7.997805,-8.003663 z m -11.999634,23.999267 19.997437,0 0,47.998535 8.003658,0 0,8.003661 -32.002925,0 0,-8.003661 8.003659,0 0,-39.994871 -4.001829,0 z"
     id="path4"
     inkscape:connector-curvature="0" />
</svg>
