<?xml version="1.0" encoding="UTF-8" standalone="no"?>
<svg
   xmlns:dc="http://purl.org/dc/elements/1.1/"
   xmlns:cc="http://creativecommons.org/ns#"
   xmlns:rdf="http://www.w3.org/1999/02/22-rdf-syntax-ns#"
   xmlns:svg="http://www.w3.org/2000/svg"
   xmlns="http://www.w3.org/2000/svg"
   xmlns:sodipodi="http://sodipodi.sourceforge.net/DTD/sodipodi-0.dtd"
   xmlns:inkscape="http://www.inkscape.org/namespaces/inkscape"
   width="128"
   height="128"
   viewBox="0 0 128 128"
   id="svg2"
   version="1.1"
   inkscape:version="0.48.2 r9819"
   sodipodi:docname="trackers.svg">
  <metadata
     id="metadata18">
    <rdf:RDF>
      <cc:Work
         rdf:about="">
        <dc:format>image/svg+xml</dc:format>
        <dc:type
           rdf:resource="http://purl.org/dc/dcmitype/StillImage" />
      </cc:Work>
    </rdf:RDF>
  </metadata>
  <defs
     id="defs16" />
  <sodipodi:namedview
     pagecolor="#ffffff"
     bordercolor="#666666"
     borderopacity="1"
     objecttolerance="10"
     gridtolerance="10"
     guidetolerance="10"
     inkscape:pageopacity="0"
     inkscape:pageshadow="2"
     inkscape:window-width="1680"
     inkscape:window-height="987"
     id="namedview14"
     showgrid="false"
     inkscape:zoom="1.84375"
     inkscape:cx="64"
     inkscape:cy="64"
     inkscape:window-x="-4"
     inkscape:window-y="-4"
     inkscape:window-maximized="0"
     inkscape:current-layer="svg2" />
  <g
     style="fill:#1c8bd2;fill-opacity:1"
     id="g4"
     transform="matrix(1.3341471,0,0,1.5038781,-21.346307,-32.415623)">
    <path
       d="M 45.5625,21.554688 C 44,21.71875 42.6875,23.183594 42.695312,24.753906 l 0,25.378906 c 0,1.675782 1.523438,3.199219 3.199219,3.199219 l 36.210938,0 c 1.675781,0 3.199219,-1.523437 3.199219,-3.199219 l 0,-25.378906 c 0,-1.675781 -1.523438,-3.199218 -3.199219,-3.199218 z"
       id="path6"
       style="fill:#1c8bd2;fill-opacity:1"
       inkscape:connector-curvature="0" />
    <path
       d="m 18.867188,74.886719 c -1.5625,0.167969 -2.875,1.632812 -2.867188,3.199219 l 0,25.378902 c 0,1.67579 1.523438,3.20313 3.199219,3.20313 l 36.210937,0 c 1.675782,0 3.199219,-1.52734 3.199219,-3.20313 l 0,-25.378902 c 0,-1.671876 -1.523437,-3.199219 -3.199219,-3.199219 z"
       id="path8"
       style="fill:#1c8bd2;fill-opacity:1"
       inkscape:connector-curvature="0" />
    <path
       d="m 72.199219,74.886719 c -1.5625,0.167969 -2.875,1.632812 -2.867188,3.199219 l 0,25.378902 c 0,1.67579 1.527344,3.20313 3.203125,3.20313 l 36.207034,0 c 1.67578,0 3.19922,-1.52734 3.19922,-3.20313 l 0,-25.378902 c 0,-1.671876 -1.52344,-3.199219 -3.19922,-3.199219 z"
       id="path10"
       style="fill:#1c8bd2;fill-opacity:1"
       inkscape:connector-curvature="0" />
    <path
       d="m 61.332031,56 0,5.332031 -26.664062,0 0,10.667969 L 40,72 l 0,-5.332031 48,0 L 88,72 l 5.332031,0 0,-10.667969 -26.664062,0 0,-5.332031 z"
       id="path12"
       style="fill:#1c8bd2;fill-opacity:1"
       inkscape:connector-curvature="0" />
  </g>
</svg>
