<?xml version="1.0" encoding="UTF-8" standalone="no"?>
<svg
   xmlns:osb="http://www.openswatchbook.org/uri/2009/osb"
   xmlns:dc="http://purl.org/dc/elements/1.1/"
   xmlns:cc="http://creativecommons.org/ns#"
   xmlns:rdf="http://www.w3.org/1999/02/22-rdf-syntax-ns#"
   xmlns:svg="http://www.w3.org/2000/svg"
   xmlns="http://www.w3.org/2000/svg"
   xmlns:sodipodi="http://sodipodi.sourceforge.net/DTD/sodipodi-0.dtd"
   xmlns:inkscape="http://www.inkscape.org/namespaces/inkscape"
   width="128"
   height="128"
   viewBox="0 0 128 128"
   id="svg2"
   version="1.1"
   inkscape:version="0.48.2 r9819"
   sodipodi:docname="files.svg">
  <metadata
     id="metadata12">
    <rdf:RDF>
      <cc:Work
         rdf:about="">
        <dc:format>image/svg+xml</dc:format>
        <dc:type
           rdf:resource="http://purl.org/dc/dcmitype/StillImage" />
      </cc:Work>
    </rdf:RDF>
  </metadata>
  <defs
     id="defs10">
    <linearGradient
       id="linearGradient5199"
       osb:paint="solid">
      <stop
         style="stop-color:#288cd2;stop-opacity:1;"
         offset="0"
         id="stop5201" />
    </linearGradient>
  </defs>
  <sodipodi:namedview
     pagecolor="#ffffff"
     bordercolor="#666666"
     borderopacity="1"
     objecttolerance="10"
     gridtolerance="10"
     guidetolerance="10"
     inkscape:pageopacity="0"
     inkscape:pageshadow="2"
     inkscape:window-width="694"
     inkscape:window-height="480"
     id="namedview8"
     showgrid="false"
     inkscape:zoom="1.84375"
     inkscape:cx="64"
     inkscape:cy="64"
     inkscape:window-x="941"
     inkscape:window-y="210"
     inkscape:window-maximized="0"
     inkscape:current-layer="svg2" />
  <path
     style="fill:#288cd2;fill-opacity:0.58431373;stroke:none"
     d="m 18.164064,97.183592 c -1.824224,0 -3.347656,-2.027344 -3.347656,-3.941408 l 0,-74.503904 c 0,-2.042968 1.765624,-3.921872 3.687496,-3.921872 l 90.953126,0 c 1.96094,0 3.72656,1.878904 3.72656,3.921872 l 0,67.503904 c 0,2.132816 -1.76562,3.937504 -3.72656,3.937504 l -35.531246,0 0,3.062496 c 0,2.02344 -1.699224,3.88672 -3.66016,3.88672 l -51.76172,0 c -0.132808,0 -0.26172,0 -0.32812,0 z"
     id="path4"
     inkscape:connector-curvature="0" />
  <path
     style="fill:#268bd2;fill-opacity:1"
     d="M 4.339844 40 C 1.976562 40 0 41.894531 0 43.78125 L 0 116.199219 C 0 118.265625 2.292969 120 4.804688 120 L 123.199219 120 C 125.761719 120 128 118.265625 128 116.199219 L 128 50.535156 C 128 48.535156 125.761719 46.667969 123.199219 46.667969 L 76.992188 46.667969 L 76.992188 43.78125 C 76.992188 41.820312 74.625 40 72.128906 40 L 4.792969 40 C 4.664062 40 4.472656 40 4.410156 40 Z "
     id="path6" />
</svg>
