<?xml version="1.0" encoding="UTF-8" standalone="no"?>
<svg
   xmlns:dc="http://purl.org/dc/elements/1.1/"
   xmlns:cc="http://creativecommons.org/ns#"
   xmlns:rdf="http://www.w3.org/1999/02/22-rdf-syntax-ns#"
   xmlns:svg="http://www.w3.org/2000/svg"
   xmlns="http://www.w3.org/2000/svg"
   xmlns:sodipodi="http://sodipodi.sourceforge.net/DTD/sodipodi-0.dtd"
   xmlns:inkscape="http://www.inkscape.org/namespaces/inkscape"
   width="128"
   height="128"
   viewBox="0 0 128 128"
   id="svg2"
   version="1.1"
   inkscape:version="0.48.2 r9819"
   sodipodi:docname="info_tab.svg">
  <metadata
     id="metadata10">
    <rdf:RDF>
      <cc:Work
         rdf:about="">
        <dc:format>image/svg+xml</dc:format>
        <dc:type
           rdf:resource="http://purl.org/dc/dcmitype/StillImage" />
      </cc:Work>
    </rdf:RDF>
  </metadata>
  <defs
     id="defs8" />
  <sodipodi:namedview
     pagecolor="#ffffff"
     bordercolor="#666666"
     borderopacity="1"
     objecttolerance="10"
     gridtolerance="10"
     guidetolerance="10"
     inkscape:pageopacity="0"
     inkscape:pageshadow="2"
     inkscape:window-width="694"
     inkscape:window-height="480"
     id="namedview6"
     showgrid="false"
     inkscape:zoom="1.84375"
     inkscape:cx="64"
     inkscape:cy="64"
     inkscape:window-x="478"
     inkscape:window-y="336"
     inkscape:window-maximized="0"
     inkscape:current-layer="svg2" />
  <path
     style="fill:#268bd2;fill-opacity:1"
     d="M 64 21.332031 C 40.484375 21.332031 21.332031 40.484375 21.332031 64 C 21.332031 87.515625 40.484375 106.667969 64 106.667969 C 87.515625 106.667969 106.667969 87.515625 106.667969 64 C 106.667969 40.484375 87.515625 21.332031 64 21.332031 Z M 64 37.332031 C 66.945312 37.332031 69.332031 39.722656 69.332031 42.667969 C 69.332031 45.613281 66.945312 48 64 48 C 61.054688 48 58.667969 45.613281 58.667969 42.667969 C 58.667969 39.722656 61.054688 37.332031 64 37.332031 Z M 56 53.332031 L 69.332031 53.332031 L 69.332031 85.332031 L 74.667969 85.332031 L 74.667969 90.667969 L 53.332031 90.667969 L 53.332031 85.332031 L 58.667969 85.332031 L 58.667969 58.667969 L 56 58.667969 Z "
     id="path4" />
</svg>
