<?xml version="1.0" encoding="UTF-8" standalone="no"?>
<svg
   xmlns:dc="http://purl.org/dc/elements/1.1/"
   xmlns:cc="http://creativecommons.org/ns#"
   xmlns:rdf="http://www.w3.org/1999/02/22-rdf-syntax-ns#"
   xmlns:svg="http://www.w3.org/2000/svg"
   xmlns="http://www.w3.org/2000/svg"
   xmlns:sodipodi="http://sodipodi.sourceforge.net/DTD/sodipodi-0.dtd"
   xmlns:inkscape="http://www.inkscape.org/namespaces/inkscape"
   width="128"
   height="128"
   viewBox="0 0 128 128"
   id="svg2"
   version="1.1"
   inkscape:version="0.48.2 r9819"
   sodipodi:docname="trackers_tab.svg">
  <metadata
     id="metadata18">
    <rdf:RDF>
      <cc:Work
         rdf:about="">
        <dc:format>image/svg+xml</dc:format>
        <dc:type
           rdf:resource="http://purl.org/dc/dcmitype/StillImage" />
      </cc:Work>
    </rdf:RDF>
  </metadata>
  <defs
     id="defs16" />
  <sodipodi:namedview
     pagecolor="#ffffff"
     bordercolor="#666666"
     borderopacity="1"
     objecttolerance="10"
     gridtolerance="10"
     guidetolerance="10"
     inkscape:pageopacity="0"
     inkscape:pageshadow="2"
     inkscape:window-width="694"
     inkscape:window-height="480"
     id="namedview14"
     showgrid="false"
     inkscape:zoom="1.84375"
     inkscape:cx="64"
     inkscape:cy="64"
     inkscape:window-x="723"
     inkscape:window-y="260"
     inkscape:window-maximized="0"
     inkscape:current-layer="svg2" />
  <g
     style="fill:#1c8bd2;fill-opacity:1"
     id="g4">
    <path
       d="M 45.5625 21.554688 C 44 21.71875 42.6875 23.183594 42.695312 24.753906 L 42.695312 50.132812 C 42.695312 51.808594 44.21875 53.332031 45.894531 53.332031 L 82.105469 53.332031 C 83.78125 53.332031 85.304688 51.808594 85.304688 50.132812 L 85.304688 24.753906 C 85.304688 23.078125 83.78125 21.554688 82.105469 21.554688 Z "
       id="path6"
       style="fill:#1c8bd2;fill-opacity:1" />
    <path
       d="M 18.867188 74.886719 C 17.304688 75.054688 15.992188 76.519531 16 78.085938 L 16 103.464844 C 16 105.140625 17.523438 106.667969 19.199219 106.667969 L 55.410156 106.667969 C 57.085938 106.667969 58.609375 105.140625 58.609375 103.464844 L 58.609375 78.085938 C 58.609375 76.414062 57.085938 74.886719 55.410156 74.886719 Z "
       id="path8"
       style="fill:#1c8bd2;fill-opacity:1" />
    <path
       d="M 72.199219 74.886719 C 70.636719 75.054688 69.324219 76.519531 69.332031 78.085938 L 69.332031 103.464844 C 69.332031 105.140625 70.859375 106.667969 72.535156 106.667969 L 108.742188 106.667969 C 110.417969 106.667969 111.941406 105.140625 111.941406 103.464844 L 111.941406 78.085938 C 111.941406 76.414062 110.417969 74.886719 108.742188 74.886719 Z "
       id="path10"
       style="fill:#1c8bd2;fill-opacity:1" />
    <path
       d="M 61.332031 56 L 61.332031 61.332031 L 34.667969 61.332031 L 34.667969 72 L 40 72 L 40 66.667969 L 88 66.667969 L 88 72 L 93.332031 72 L 93.332031 61.332031 L 66.667969 61.332031 L 66.667969 56 Z "
       id="path12"
       style="fill:#1c8bd2;fill-opacity:1" />
  </g>
</svg>
